<?xml version="1.0" encoding="iso-8859-1"?>
<!-- Uploaded to: SVG Repo, www.svgrepo.com, Generator: SVG Repo Mixer Tools -->
<svg height="800px" width="800px" version="1.1" id="Layer_1" xmlns="http://www.w3.org/2000/svg" xmlns:xlink="http://www.w3.org/1999/xlink" 
	 viewBox="0 0 512 512" xml:space="preserve">
<path style="fill:#A4E276;" d="M382.199,118.165C371.956,57.771,319.265,11.636,256,11.636S140.044,57.771,129.801,118.165
	c-52.809,8.955-94.714,50.37-104.408,102.928h23.779h24.052h112.958h38.788h7.758h15.515H256h7.758h15.515h7.758h38.788h112.958
	h24.052h23.779C476.912,168.535,435.008,127.12,382.199,118.165z"/>
<path style="fill:#6DC82A;" d="M330.473,188.511c-7.714-10.282-22.298-12.366-32.582-4.655l-18.618,13.964v-51.202
	c0-12.853-10.42-23.273-23.273-23.273c-12.853,0-23.273,10.42-23.273,23.273v51.202l-18.618-13.964
	c-10.28-7.713-24.869-5.627-32.582,4.655c-7.713,10.282-5.629,24.869,4.655,32.582l0,0h38.788h7.758h15.515H256h7.758h15.515h7.758
	h38.788C336.1,213.38,338.185,198.793,330.473,188.511z"/>
<path style="fill:#DEDEE0;" d="M512,244.365c0-12.853-10.42-23.273-23.273-23.273h-2.121h-23.779h-24.052H325.818H287.03h-7.758
	h-15.515H256h-7.758h-15.515h-7.758h-38.788H73.224H49.172H25.394h-2.121C10.42,221.092,0,231.512,0,244.365
	c0,91.951,48.738,172.719,121.727,217.867c-3.348,4.031-5.364,9.208-5.364,14.859c0,12.853,10.42,23.273,23.273,23.273H256h116.364
	c12.853,0,23.273-10.42,23.273-23.273c0-5.651-2.015-10.828-5.364-14.859C463.262,417.085,512,336.316,512,244.365z"/>
<path style="fill:#368B4C;" d="M232.727,146.618v51.202l-18.618-13.964c-10.28-7.713-24.869-5.627-32.582,4.655
	c-7.713,10.282-5.629,24.869,4.655,32.582v0.002h38.788h7.758h15.515H256v-97.749C243.147,123.345,232.727,133.765,232.727,146.618z
	"/>
<path style="fill:#64C37D;" d="M73.224,221.092h112.958v-0.002c-10.283-7.713-12.367-22.3-4.655-32.582
	c7.713-10.282,22.301-12.367,32.582-4.655l18.618,13.964v-51.2c0-12.853,10.42-23.273,23.273-23.273V11.636
	c-63.265,0-115.956,46.134-126.199,106.529c-52.809,8.955-94.714,50.37-104.408,102.928h23.779H73.224z"/>
<path style="fill:#D6D5D8;" d="M248.242,221.092h-15.515h-7.758h-38.788H73.224H49.172H25.394h-2.121
	C10.42,221.092,0,231.512,0,244.365c0,91.951,48.738,172.719,121.727,217.867c-3.348,4.032-5.364,9.208-5.364,14.859
	c0,12.853,10.42,23.273,23.273,23.273H256V221.092H248.242z"/>
</svg>